<mxfile host="app.diagrams.net" agent="Mozilla/5.0 (X11; Ubuntu; Linux x86_64; rv:130.0) Gecko/20100101 Firefox/130.0" version="24.7.16">
  <diagram name="Page-1" id="n9SsPQyLZ_aMXoqtBORI">
    <mxGraphModel dx="2274" dy="806" grid="1" gridSize="10" guides="1" tooltips="1" connect="1" arrows="1" fold="1" page="1" pageScale="1" pageWidth="827" pageHeight="1169" math="0" shadow="0">
      <root>
        <mxCell id="0" />
        <mxCell id="1" parent="0" />
        <mxCell id="m3ubhMUXl34_x-bLTFrH-12" value="Просмотр" style="rounded=1;whiteSpace=wrap;html=1;" vertex="1" parent="1">
          <mxGeometry x="125" y="250" width="120" height="60" as="geometry" />
        </mxCell>
        <mxCell id="m3ubhMUXl34_x-bLTFrH-15" value="Принадлежность" style="rounded=1;whiteSpace=wrap;html=1;" vertex="1" parent="1">
          <mxGeometry x="-30" y="90" width="120" height="60" as="geometry" />
        </mxCell>
        <mxCell id="m3ubhMUXl34_x-bLTFrH-19" value="Регистрация" style="rounded=1;whiteSpace=wrap;html=1;" vertex="1" parent="1">
          <mxGeometry x="270" y="380" width="120" height="60" as="geometry" />
        </mxCell>
        <mxCell id="m3ubhMUXl34_x-bLTFrH-22" value="Номер борта" style="rounded=0;whiteSpace=wrap;html=1;" vertex="1" parent="1">
          <mxGeometry x="-493" y="540" width="80" height="20" as="geometry" />
        </mxCell>
        <mxCell id="m3ubhMUXl34_x-bLTFrH-23" value="Рейс" style="rounded=0;whiteSpace=wrap;html=1;" vertex="1" parent="1">
          <mxGeometry x="-413" y="540" width="80" height="20" as="geometry" />
        </mxCell>
        <mxCell id="m3ubhMUXl34_x-bLTFrH-25" value="Номер рейса" style="rounded=0;whiteSpace=wrap;html=1;" vertex="1" parent="1">
          <mxGeometry x="-650" y="490" width="80" height="20" as="geometry" />
        </mxCell>
        <mxCell id="m3ubhMUXl34_x-bLTFrH-26" value="&lt;div&gt;Дата и время&lt;/div&gt;" style="rounded=0;whiteSpace=wrap;html=1;" vertex="1" parent="1">
          <mxGeometry x="-570" y="490" width="80" height="20" as="geometry" />
        </mxCell>
        <mxCell id="m3ubhMUXl34_x-bLTFrH-27" value="&lt;div&gt;Пункт начала&lt;/div&gt;" style="rounded=0;whiteSpace=wrap;html=1;" vertex="1" parent="1">
          <mxGeometry x="-490" y="490" width="80" height="20" as="geometry" />
        </mxCell>
        <mxCell id="m3ubhMUXl34_x-bLTFrH-28" value="Пункт конца" style="rounded=0;whiteSpace=wrap;html=1;" vertex="1" parent="1">
          <mxGeometry x="-410" y="490" width="80" height="20" as="geometry" />
        </mxCell>
        <mxCell id="m3ubhMUXl34_x-bLTFrH-29" value="Дата и время" style="rounded=0;whiteSpace=wrap;html=1;" vertex="1" parent="1">
          <mxGeometry x="170" y="660" width="120" height="60" as="geometry" />
        </mxCell>
        <mxCell id="m3ubhMUXl34_x-bLTFrH-30" value="Время прибытия" style="rounded=0;whiteSpace=wrap;html=1;" vertex="1" parent="1">
          <mxGeometry x="230" y="720" width="120" height="60" as="geometry" />
        </mxCell>
        <mxCell id="m3ubhMUXl34_x-bLTFrH-31" value="Время отправки" style="rounded=0;whiteSpace=wrap;html=1;" vertex="1" parent="1">
          <mxGeometry x="110" y="720" width="120" height="60" as="geometry" />
        </mxCell>
        <mxCell id="m3ubhMUXl34_x-bLTFrH-32" value="Рейс" style="rounded=0;whiteSpace=wrap;html=1;" vertex="1" parent="1">
          <mxGeometry x="120" y="490" width="120" height="60" as="geometry" />
        </mxCell>
        <mxCell id="m3ubhMUXl34_x-bLTFrH-33" value="Самолет" style="rounded=0;whiteSpace=wrap;html=1;" vertex="1" parent="1">
          <mxGeometry x="-60" y="550" width="120" height="60" as="geometry" />
        </mxCell>
        <mxCell id="m3ubhMUXl34_x-bLTFrH-34" value="Дата и время" style="rounded=0;whiteSpace=wrap;html=1;" vertex="1" parent="1">
          <mxGeometry x="180" y="550" width="120" height="60" as="geometry" />
        </mxCell>
        <mxCell id="m3ubhMUXl34_x-bLTFrH-35" value="Пункт начала и прибытия" style="rounded=0;whiteSpace=wrap;html=1;" vertex="1" parent="1">
          <mxGeometry x="60" y="550" width="120" height="60" as="geometry" />
        </mxCell>
        <mxCell id="m3ubhMUXl34_x-bLTFrH-36" value="Самолет" style="rounded=0;whiteSpace=wrap;html=1;" vertex="1" parent="1">
          <mxGeometry x="-180" y="620" width="120" height="60" as="geometry" />
        </mxCell>
        <mxCell id="m3ubhMUXl34_x-bLTFrH-37" value="Номер борта" style="rounded=0;whiteSpace=wrap;html=1;" vertex="1" parent="1">
          <mxGeometry x="-300" y="680" width="120" height="60" as="geometry" />
        </mxCell>
        <mxCell id="m3ubhMUXl34_x-bLTFrH-38" value="Компания владелец" style="rounded=0;whiteSpace=wrap;html=1;" vertex="1" parent="1">
          <mxGeometry x="-60" y="680" width="120" height="60" as="geometry" />
        </mxCell>
        <mxCell id="m3ubhMUXl34_x-bLTFrH-39" value="Количество мест" style="rounded=0;whiteSpace=wrap;html=1;" vertex="1" parent="1">
          <mxGeometry x="-180" y="680" width="120" height="60" as="geometry" />
        </mxCell>
        <mxCell id="m3ubhMUXl34_x-bLTFrH-40" value="Пользователь" style="rounded=0;whiteSpace=wrap;html=1;" vertex="1" parent="1">
          <mxGeometry x="417" y="620" width="120" height="60" as="geometry" />
        </mxCell>
        <mxCell id="m3ubhMUXl34_x-bLTFrH-41" value="Регистрированные рейсы" style="rounded=0;whiteSpace=wrap;html=1;" vertex="1" parent="1">
          <mxGeometry x="360" y="680" width="120" height="60" as="geometry" />
        </mxCell>
        <mxCell id="m3ubhMUXl34_x-bLTFrH-42" value="ID" style="rounded=0;whiteSpace=wrap;html=1;" vertex="1" parent="1">
          <mxGeometry x="480" y="680" width="120" height="60" as="geometry" />
        </mxCell>
        <mxCell id="m3ubhMUXl34_x-bLTFrH-43" value="Пользователь" style="rounded=0;whiteSpace=wrap;html=1;" vertex="1" parent="1">
          <mxGeometry x="300" y="550" width="120" height="60" as="geometry" />
        </mxCell>
        <mxCell id="m3ubhMUXl34_x-bLTFrH-46" value="" style="endArrow=none;html=1;rounded=0;exitX=1;exitY=0.5;exitDx=0;exitDy=0;dashed=1;" edge="1" parent="1">
          <mxGeometry width="50" height="50" relative="1" as="geometry">
            <mxPoint x="-270" y="360" as="sourcePoint" />
            <mxPoint x="430" y="360" as="targetPoint" />
          </mxGeometry>
        </mxCell>
        <mxCell id="m3ubhMUXl34_x-bLTFrH-48" value="" style="endArrow=none;html=1;rounded=0;entryX=0.5;entryY=1;entryDx=0;entryDy=0;exitX=0.5;exitY=0;exitDx=0;exitDy=0;dashed=1;" edge="1" parent="1" source="m3ubhMUXl34_x-bLTFrH-12" target="m3ubhMUXl34_x-bLTFrH-54">
          <mxGeometry width="50" height="50" relative="1" as="geometry">
            <mxPoint x="185" y="310" as="sourcePoint" />
            <mxPoint x="185" y="370" as="targetPoint" />
          </mxGeometry>
        </mxCell>
        <mxCell id="m3ubhMUXl34_x-bLTFrH-49" value="" style="endArrow=none;html=1;rounded=0;dashed=1;" edge="1" parent="1">
          <mxGeometry width="50" height="50" relative="1" as="geometry">
            <mxPoint x="430" y="210" as="sourcePoint" />
            <mxPoint x="430" y="360" as="targetPoint" />
          </mxGeometry>
        </mxCell>
        <mxCell id="m3ubhMUXl34_x-bLTFrH-50" value="" style="endArrow=none;html=1;rounded=0;exitX=1;exitY=0.5;exitDx=0;exitDy=0;dashed=1;" edge="1" parent="1">
          <mxGeometry width="50" height="50" relative="1" as="geometry">
            <mxPoint x="240.00000000000864" y="160" as="sourcePoint" />
            <mxPoint x="430" y="160" as="targetPoint" />
          </mxGeometry>
        </mxCell>
        <mxCell id="m3ubhMUXl34_x-bLTFrH-51" value="" style="endArrow=none;html=1;rounded=0;entryX=0.5;entryY=0;entryDx=0;entryDy=0;dashed=1;" edge="1" parent="1">
          <mxGeometry width="50" height="50" relative="1" as="geometry">
            <mxPoint x="430" y="160" as="sourcePoint" />
            <mxPoint x="430" y="220" as="targetPoint" />
          </mxGeometry>
        </mxCell>
        <mxCell id="m3ubhMUXl34_x-bLTFrH-52" value="" style="endArrow=none;html=1;rounded=0;exitX=1;exitY=0.5;exitDx=0;exitDy=0;" edge="1" parent="1">
          <mxGeometry width="50" height="50" relative="1" as="geometry">
            <mxPoint x="-50" y="160" as="sourcePoint" />
            <mxPoint x="119.99999999999136" y="160" as="targetPoint" />
          </mxGeometry>
        </mxCell>
        <mxCell id="m3ubhMUXl34_x-bLTFrH-53" value="Самолет&lt;br&gt;&lt;div&gt;&lt;br&gt;&lt;/div&gt;&lt;div&gt;Номер борта&lt;/div&gt;&lt;div&gt;Компания владелец&lt;/div&gt;&lt;div&gt;Количество пассажиров&lt;br&gt;&lt;/div&gt;" style="rounded=0;whiteSpace=wrap;html=1;" vertex="1" parent="1">
          <mxGeometry x="-220" y="100" width="170" height="115" as="geometry" />
        </mxCell>
        <mxCell id="m3ubhMUXl34_x-bLTFrH-54" value="&lt;div&gt;Рейс&lt;/div&gt;&lt;div&gt;&lt;br&gt;&lt;/div&gt;&lt;div&gt;Дата и время&lt;/div&gt;&lt;div&gt;Номер рейса&lt;/div&gt;&lt;div&gt;Номер борта&lt;/div&gt;&lt;div&gt;Список зарегестрированных пользователей&lt;/div&gt;" style="rounded=0;whiteSpace=wrap;html=1;" vertex="1" parent="1">
          <mxGeometry x="110" y="90" width="150" height="120" as="geometry" />
        </mxCell>
        <mxCell id="m3ubhMUXl34_x-bLTFrH-56" value="Пользователь&lt;br&gt;&lt;br&gt;&lt;div&gt;ID&lt;/div&gt;&lt;div&gt;Может?&lt;/div&gt;&lt;div&gt;Регистрироваться на рейс&lt;/div&gt;&lt;div&gt;бронировать рейс, &lt;br&gt;&lt;/div&gt;&lt;div&gt;просматривать доступные рейсы&lt;br&gt;&lt;/div&gt;" style="rounded=0;whiteSpace=wrap;html=1;" vertex="1" parent="1">
          <mxGeometry x="-460" y="300" width="190" height="110" as="geometry" />
        </mxCell>
        <mxCell id="m3ubhMUXl34_x-bLTFrH-60" value="" style="endArrow=none;html=1;rounded=0;entryX=0.5;entryY=1;entryDx=0;entryDy=0;dashed=1;dashPattern=8 8;" edge="1" parent="1" target="m3ubhMUXl34_x-bLTFrH-12">
          <mxGeometry width="50" height="50" relative="1" as="geometry">
            <mxPoint x="185" y="360" as="sourcePoint" />
            <mxPoint x="195" y="220" as="targetPoint" />
          </mxGeometry>
        </mxCell>
        <mxCell id="m3ubhMUXl34_x-bLTFrH-67" value="" style="edgeStyle=entityRelationEdgeStyle;fontSize=12;html=1;endArrow=ERmany;startArrow=ERmany;rounded=0;entryX=0;entryY=1;entryDx=0;entryDy=0;exitX=1;exitY=0;exitDx=0;exitDy=0;" edge="1" parent="1" source="m3ubhMUXl34_x-bLTFrH-56" target="m3ubhMUXl34_x-bLTFrH-54">
          <mxGeometry width="100" height="100" relative="1" as="geometry">
            <mxPoint x="20" y="550" as="sourcePoint" />
            <mxPoint x="120" y="450" as="targetPoint" />
          </mxGeometry>
        </mxCell>
        <mxCell id="m3ubhMUXl34_x-bLTFrH-68" value="" style="edgeStyle=entityRelationEdgeStyle;fontSize=12;html=1;endArrow=ERmany;rounded=0;exitX=1;exitY=1;exitDx=0;exitDy=0;entryX=0;entryY=0.75;entryDx=0;entryDy=0;dashed=1;" edge="1" parent="1" source="m3ubhMUXl34_x-bLTFrH-53" target="m3ubhMUXl34_x-bLTFrH-54">
          <mxGeometry width="100" height="100" relative="1" as="geometry">
            <mxPoint y="550" as="sourcePoint" />
            <mxPoint x="100" y="450" as="targetPoint" />
          </mxGeometry>
        </mxCell>
      </root>
    </mxGraphModel>
  </diagram>
</mxfile>
